<?xml version="1.0" encoding="UTF-8"?>
<svg id="Layer_1" data-name="Layer 1" xmlns="http://www.w3.org/2000/svg" viewBox="0 0 500 280.4">
  <defs>
    <style>
      .cls-1 {
        fill: #d1ebff;
      }

      .cls-2 {
        fill: #fccdb7;
      }

      .cls-3 {
        opacity: .5;
      }

      .cls-3, .cls-4 {
        fill: #084c94;
      }

      .cls-5 {
        fill: #001a46;
      }

      .cls-6 {
        fill: #92b4d1;
      }

      .cls-7 {
        fill: #2672ab;
      }

      .cls-8 {
        fill: #08488c;
      }

      .cls-9, .cls-10 {
        fill: #a8cff0;
      }

      .cls-11 {
        fill: #f0f8ff;
      }

      .cls-10 {
        opacity: .4;
      }

      .cls-12 {
        fill: #022652;
      }

      .cls-13 {
        fill: #3f92d1;
      }

      .cls-14 {
        fill: #f9b69e;
      }

      .cls-15 {
        fill: #03336e;
      }
    </style>
  </defs>
  <path class="cls-1" d="M449.48,29.71c-.05,0-.11,0-.16-.02-.34-.09-.54-.43-.45-.77l7.15-27.58-81.89,7.07c-.36,.02-.65-.23-.68-.57-.03-.35,.23-.65,.57-.68L456.79,0c.2-.03,.4,.06,.54,.22,.13,.16,.18,.37,.13,.57l-7.37,28.44c-.07,.28-.33,.47-.61,.47Z"/>
  <path class="cls-9" d="M445.14,11.17l-111.04,9.59,25.89,14.95-75.73,43.72c13.01-2.35,26.82-3.59,41.09-3.59s29.49,1.33,43.83,3.81l33.46-19.32,25.89,14.95,16.61-64.11Z"/>
  <g>
    <path class="cls-6" d="M484.25,166.69l-34.25-66.4-19.07,11.01c-35.77-19.12-81.97-27.33-123.86-24.05,18.49,11.33,31.75,23.09,39.97,35.51,14.49,2.18,28.87,6.56,41.48,13.02l-19.28,11.13,115.01,19.77Z"/>
    <path class="cls-6" d="M252.31,127.54l-25.46-14.57-84.31,48.68c4.05-.16,8.29-.26,12.75-.26,9.14,0,19.37,.34,30.39,1.02,15.89,.98,28.47,1.6,37.6,1.87l43.61-25.18c-2.89-3.73-7.85-7.68-14.58-11.57Z"/>
  </g>
  <path class="cls-1" d="M167.68,60.16c-.23,0-.45-.12-.56-.34l-14.03-27.2c-.11-.21-.09-.47,.05-.66,.14-.19,.38-.28,.62-.25l96.17,16.54c.34,.06,.57,.39,.51,.73-.06,.34-.38,.57-.73,.51l-94.92-16.32,13.45,26.08c.16,.31,.04,.69-.27,.85-.09,.05-.19,.07-.29,.07Z"/>
  <path class="cls-10" d="M346.23,150.07c-2.22-19.92-18.86-38.84-49.93-56.78l-30.51-18.11,19.64-11.34-114.99-19.77,34.24,66.39,19.14-11.05,33.83,18.86c14.25,8.23,21.84,16.92,22.79,26.08,.94,9.16-3.81,16.77-14.27,22.8-7.53,4.35-16.79,6.95-27.79,7.82-7.04,.51-24.83-.12-53.37-1.87-28.55-1.75-50.56-1.2-66.02,1.65-15.47,2.85-31.11,8.85-46.93,17.98-1.53,.88-5.74,3.39-12.63,7.51l49.1,28.35c14.54-8.69,26.06-13.9,34.56-15.62,8.5-1.72,23.18-2.01,44.05-.86,40.32,2.21,69.14,2.21,86.47,0,17.33-2.22,31.92-6.76,43.79-13.61,21.43-12.37,31.03-28.52,28.82-48.43Z"/>
  <path class="cls-1" d="M45.78,280.4c-.35,0-.63-.28-.63-.63s.28-.63,.63-.63c14.76,0,28.81-3.42,39.57-9.63,6.47-3.74,11.51-8.27,14.95-13.46,.19-.29,.59-.37,.87-.18,.29,.19,.37,.58,.18,.87-3.56,5.36-8.73,10.02-15.37,13.86-10.95,6.32-25.23,9.8-40.2,9.8Z"/>
  <ellipse class="cls-10" cx="47.17" cy="244.13" rx="27.23" ry="47.17" transform="translate(-197.22 289.97) rotate(-89.69)"/>
  <g>
    <path class="cls-7" d="M20.45,110.38c-3.1-8.93-12.29-24.55-14.26-28.89s-5.2-13.13-1.69-15.59c3.65-2.55,12.86-4.54,16.73-5.47,3.21-.77,10.94-2.87,11.15,1.72,.19,4.08-1.44,8.67-3.83,9.12-2.17,.41-8.81,2.56-9.46,2.74s1.64,3.41,2.64,5.01,6.01,10.09,7.66,11.3c1.64,1.21,4.99,2.98,4.99,2.98l-13.01,17.73-.91-.65Z"/>
    <path class="cls-14" d="M63.03,170.1c.22,2.7,1.22,5.23,1.95,6.73,.82,1.7,1.09,3.66,2,3.34,.91-.32-.26-8.23-.26-8.23l-3.69-1.83Z"/>
    <path class="cls-5" d="M21.07,239.98s-.89,3.42-.21,4.86c.68,1.44,3.83,2.6,6.37,1.37,2.53-1.23,3.63-3.83,4.59-4.52,.96-.68,6.37-1.3,10.4-4.72,4.04-3.42,3.49-7.19-.55-7.26-4.04-.07-11.36,1.78-13.96,3.49-2.6,1.71-6.64,6.78-6.64,6.78Z"/>
    <path class="cls-12" d="M22.98,243.67c2.89,.6,6.57-1.92,8.28-3.35,1.71-1.44,4.72-.68,8.62-3.76,3.9-3.08,5.27-5.2,3.49-6.23-1.78-1.03-8.26-.73-13.32,2-5.07,2.74-8.44,4.7-8.44,4.7,0,0-1.23,3.76-.62,4.59,.62,.82,.34,1.71,1.99,2.05Z"/>
    <path class="cls-7" d="M22.95,157.32s-2.16,9.24-.72,20.95c1.44,11.7-.82,35.22-1.33,43.53s-3.4,18.53,.82,20.64c2.43,1.21,6.78,.51,10.16-3.39,3.39-3.9,4.11-7.7,3.7-8.42-.41-.72-1.03-3.9,.31-10.78,1.33-6.88,4-23.62,3.8-29.06-.21-5.44-2.16-31.01-2.16-31.01l-14.58-2.46Z"/>
    <path class="cls-4" d="M39.68,190.79c.21,5.44-2.46,22.18-3.8,29.06-1.33,6.88-.72,10.06-.31,10.78,.41,.72-.31,4.52-3.7,8.42-1.33,1.53-2.8,2.56-4.25,3.18,1.46-2.76,3.64-8.44,3.64-17.86,0-14.17,2.94-32.23,3.35-42.09,.24-5.77-1.11-16.68-1.11-23.69l4.02,1.2s1.95,25.57,2.16,31.01Z"/>
    <path class="cls-5" d="M42.56,252.16s-1.51,4.45,.34,5.41,4.72,1.51,7.05,.48c2.33-1.03,3.29-2.05,5.75-2.05s12.05-4.72,13.9-7.05c1.85-2.33,0-5-4.59-4.65s-11.16,.89-12.32,1.3-10.13,6.57-10.13,6.57Z"/>
    <path class="cls-12" d="M44.61,255.45c4.3,.51,5.68-.68,9.65-1.51,3.97-.82,15.26-5.4,15.05-7.93-.21-2.53-2.8-1.99-4.99-1.79-2.19,.21-9.17,.68-9.72,.68s-11.91,5.13-11.91,5.13c0,0-.82,3.7-.07,4.24s.82,1.03,1.98,1.16Z"/>
    <path class="cls-7" d="M36.3,160.4s-2.57,5.54-.1,15.09c2.46,9.55,5.34,20.84,5.44,32.96,.1,12.12-1.33,43.43,.51,45.18,1.85,1.75,8.35,2.34,10.99,.41,4.28-3.14,6.57-7.6,6.16-9.14s-3.7-7.08-2.57-12.01,4.93-21.97,4.21-33.57c-.72-11.6-2.67-41.89-2.67-41.89l-21.97,2.98Z"/>
    <path class="cls-2" d="M46.8,64.61c2.72,1.33,5.48,3.56,5.61,10.4,.14,6.85,.21,10.13-1.16,11.02s-2.4,0-2.67,1.92,.27,5.07,.27,5.07l-14.92-3.35s1.03-2.4,.07-4.86c-.96-2.46-5.27-7.26-1.98-14.31,3.29-7.05,11.57-7.46,14.79-5.89Z"/>
    <path class="cls-15" d="M52.55,70.43c.05,1.31-.75,3.42-2.6,3.56-1.85,.14-2.74,2.33-2.33,3.35,.41,1.03,.14,1.3,.14,1.3,0,0-1.37-.55-1.98,.55s.21,3.42,.62,4.31c.41,.89-2.67,3.63-5.2,3.83-2.53,.21-5.96-.07-7.05-1.37-1.1-1.3-5.13-5.68-3.7-12.66,1.44-6.98,7.87-11.16,13.83-9.99,5.96,1.16,8.21,5.27,8.28,7.12Z"/>
    <path class="cls-11" d="M51.3,96.86s-1.62-5.63-4.98-6.31c-3.35-.68-6.3-.27-8.56-1.3-2.26-1.03-3.48-2.95-3.48-2.95,0,0-2.58,.71-.67,3.04,1.92,2.33,17.68,7.53,17.68,7.53Z"/>
    <path class="cls-4" d="M50.53,158.47l7.74-1.05s1.95,30.29,2.67,41.89c.72,11.6-3.08,28.65-4.21,33.57-1.13,4.93,2.16,10.47,2.57,12.01,.37,1.4-1.5,5.23-5.08,8.27,.57-6.48,.02-13.24-.36-17.85-.45-5.34,3.56-24.69,2.45-36.26-.97-10.07-4.8-34.44-5.78-40.6Z"/>
    <path class="cls-7" d="M38.86,91.58c-3.08-1.03-6.3-2.94-6.3-2.94,0,0-4.74-.08-7.48,.33-2.74,.41-6.91,2.94-6.64,8.08s1.38,11.71,3.09,18.9c1.71,7.19,1.64,12.39,.34,19.58-1.3,7.19-5.82,22.93-5.48,24.64,.34,1.71,4.24,7.8,13.21,10.95,8.97,3.15,23.89,3.9,29.91-3.01,6.02-6.91-1.77-30.72-2.12-42.36-.34-11.64,3.9-16.51-1.03-22.53-4.93-6.02-10.47-9.65-13.62-10.47-3.15-.82-3.9-1.16-3.9-1.16Z"/>
    <path class="cls-3" d="M58.78,110.26s0-.06,0-.1c-3.98-3.88-9.53-8.46-13.37-2.74-5.01,7.45-3.11,14.01-1.89,27.47,1.22,13.46,4.23,19.02,3.78,29.03-.16,3.56-.57,6.75-1.03,9.41,5.38-.36,10.37-1.9,13.27-5.23,2.85-3.27,2.59-10.35,1.51-18.12-1.26-4.67-2.72-9.17-4.19-12.47-3.74-8.45,1.77-23.27,1.92-27.26Z"/>
    <g>
      <polygon class="cls-15" points="54.56 193.07 54.56 221.89 51.11 219.89 51.11 190.97 54.56 193.07"/>
      <polygon class="cls-12" points="54.54 193.07 54.54 221.89 89.59 201.74 89.59 172.82 54.54 193.07"/>
      <path class="cls-9" d="M70.45,203.27v1.93c0,.73,.79,1.19,1.42,.82l2.68-1.54c.56-.32,.91-.92,.91-1.57v-1.44c0-.73-.79-1.19-1.42-.82l-3.11,1.8c-.29,.17-.47,.48-.47,.82Z"/>
      <path class="cls-8" d="M54.54,193.07v8.77c0,1.11,.9,2.01,2.01,2.01h14.24c1.57,0,3.06-.71,4.04-1.94l13.02-16.33c1.12-1.4,1.73-3.15,1.73-4.94v-7.82l-35.05,20.25Z"/>
      <polygon class="cls-8" points="89.59 172.82 54.54 193.07 51.11 190.97 86.18 170.75 89.59 172.82"/>
      <path class="cls-15" d="M67.7,175.48l4.53-2.61c1.11-.64,2.12-.69,2.83-.25l1.13,.56-.16,.85c.08,.32,.13,.67,.13,1.07v2.94l-1.01,.58-.27,1.42-1.17-.59v-2.65c0-1.25-.88-1.75-1.96-1.12l-3.57,2.06c-1.09,.63-1.96,2.14-1.96,3.39v2.65l-1.1,.63-.18,1.37-1.17-.59v-2.94c0-2.49,1.76-5.53,3.93-6.78Z"/>
      <path class="cls-12" d="M77.32,175.69v2.94l-2.45,1.41v-2.65c0-1.25-.88-1.75-1.97-1.12l-3.57,2.06c-1.09,.63-1.97,2.14-1.97,3.39v2.65l-2.44,1.41v-2.94c0-2.49,1.76-5.53,3.93-6.78l4.53-2.61c2.17-1.25,3.93-.25,3.93,2.24Z"/>
      <polygon class="cls-13" points="54.47 202.8 54.19 193.25 51.11 190.97 54.63 192.53 78.63 179.19 54.97 193.08 54.47 202.8"/>
    </g>
    <path class="cls-12" d="M30.35,73.87c1.25,1.03,3.41,2.26,7.05,2.94,3.79,.71,7.53,.12,10.2-.59-.09,.42-.1,.82,.02,1.12,.41,1.03,.14,1.3,.14,1.3,0,0-1.37-.55-1.98,.55-.62,1.1,.2,3.42,.62,4.31,.41,.89-2.67,3.63-5.2,3.83-2.53,.21-5.95-.07-7.05-1.37-1.06-1.26-4.9-5.45-3.79-12.1Z"/>
    <path class="cls-2" d="M68.74,162.36s3.83,4.7,5.58,7.91c.94,1.72,.9,2.03,.48,5.58-.2,1.65-.52,2.85-1.41,2.97-.41,.05-.15-.93-.15-.93,0,0-.15,1.63-1.22,1.89-1.07,.26-.51-1.04-.51-1.04,0,0-.3,1.74-1.38,1.93-1.08,.19-.48-1.19-.48-1.19,0,0-.36,1.83-1.23,2.14-.86,.3-1-.25-1-1.51,0-1.48-.64-2.78-1.96-5.13-1.41-2.5-2.59-3.62-2.45-5.98,.15-2.36-1.8-4.34-1.8-4.34l7.52-2.3Z"/>
    <path class="cls-7" d="M54.3,104.09c-4.78-1.67-9.47,1.29-10.64,6.29-1.16,5,1.3,23.96,3.22,29.23,1.92,5.27,13.83,28.89,13.83,28.89,0,0,4.18-.55,6.78-1.71,2.6-1.16,3.83-3.56,3.83-3.56,0,0-8.21-20.33-9.79-25.05-1.57-4.72-1.01-16.71-1.51-22.04-.61-6.48-1.1-10.43-5.72-12.04Z"/>
    <path class="cls-3" d="M61.53,138.17c-1.57-4.72-1.01-16.71-1.51-22.04-.61-6.48-1.1-10.43-5.72-12.04-.16-.06-.32-.07-.48-.11,1.84,2.33,.76,6.42,1.21,11.3,.55,5.86-.08,19.01,1.65,24.2,1.6,4.79,10.92,23.62,12.1,26.54,1.7-1.22,2.53-2.8,2.53-2.8,0,0-8.21-20.33-9.79-25.05Z"/>
    <path class="cls-11" d="M29.93,60.52c-1.98-.31-4.41,.68-4.19,4.56,.27,4.92,4.06,6.84,5.33,2.42s1.18-6.61-1.14-6.97Z"/>
    <g>
      <path class="cls-2" d="M27.15,62.16c1.28-1.41,5.61-.87,8.29-.1,2.2,.63,4.09,1.26,5.06,2.43,.97,1.17,2.02,2.92,1.25,3.52-.49,.39-.94-.32-.94-.32,0,0,.47,1.18-.22,1.61-.68,.43-2.21-.86-2.21-.86,0,0,1.78,1.51,.88,2.36-.9,.85-2.96-.89-2.96-.89l-.11,.09s.87,1.22,.19,1.71-2.29-.16-3.43-1.13c-1.14-.97-2.78-1-4.1-1.32-.87-.21-1.65-.62-2.05-1.82-.41-1.23-1.36-3.38,.36-5.29Z"/>
      <g>
        <path class="cls-14" d="M40.37,69.37c-1.07-.81-3.42-2.74-3.42-2.74l1.43,1.82s1.24,1.04,1.99,.92Z"/>
        <path class="cls-14" d="M41.74,68.01h0c-.37-.32-.79-.69-1.21-1.08-1.28-1.19-1.55-1.58-1.55-1.58l1.17,1.78c.22,.23,.47,.48,.67,.67-.02-.06-.04-.11-.04-.11,0,0,.45,.7,.94,.32Z"/>
        <path class="cls-14" d="M35.63,68.8c-.68-.73-.91-1.04-.91-1.04l.86,1.7,.62,.54,.09-.08s1.59,1.34,2.59,1.09c-1.1-.66-2.83-1.76-3.25-2.21Z"/>
        <path class="cls-14" d="M32.16,69.14c-.64-.64-4.19-.96-5.38-1.69h0c.4,1.2,1.18,1.61,2.05,1.82,1.32,.32,2.96,.35,4.1,1.32,1.14,.97,2.76,1.62,3.43,1.13h0s0-.02,0-.02c-.09-.03-.16-.07-.26-.1-1-.36-3.33-1.82-3.96-2.46Z"/>
      </g>
    </g>
    <path class="cls-3" d="M21.72,79.02c-1-1.6-3.3-4.83-2.64-5.01,.66-.19,7.29-2.34,9.47-2.74,.31-.06,.6-.19,.88-.38-1.67,.2-2.79-.42-3.24-.92-.55-.61-1.88-2.31-1.88-2.31l-11.36,4.92s7.29,8.39,8.63,11.24c1.34,2.86,3.33,7.03,8.21,7.17l3.14-1.41s.82-1.09,.09-2.37c-.21-.37-4.74,1.96-5.06,1.51-2.07-2.95-5.44-8.44-6.24-9.7Z"/>
    <path class="cls-4" d="M51.73,97.26c-1.44-1.92-4.31-4.52-6.98-4.86-2.67-.34-7.82-1.39-9.54-2.65-1.96-1.45-2.19-2.67-2.19-2.67l-4,1.48s-.35,4.78,5.26,6.49c5.61,1.71,11.94,1.63,16.02,4,3.85,2.24,6.22,4.43,6.22,4.43l-4.79-6.23Z"/>
    <path class="cls-7" d="M51.73,97.26c-1.44-1.92-4.31-4.52-6.98-4.86-2.67-.34-7.82-1.39-9.54-2.65-1.96-1.45-2.19-2.67-2.19-2.67l-4,1.48s.05,3.91,5.67,5.62c5.61,1.71,12.94,2.19,16.5,4.86,3.56,2.67,5.34,4.45,5.34,4.45l-4.79-6.23Z"/>
    <path class="cls-4" d="M49,96.23l2.14,2.79s.03,.02,.04,.03c3.56,2.67,5.34,4.45,5.34,4.45l-4.79-6.23c-1.44-1.92-4.31-4.52-6.98-4.86h0c1.73,1.01,3.3,2.56,4.25,3.83Z"/>
    <path class="cls-4" d="M29.43,88.41c.09,.79,.76,3.94,5.65,5.43,5.61,1.71,12.94,2.19,16.5,4.86,1.34,1,2.43,1.88,3.26,2.59l1.69,2.2s-1.78-1.78-5.34-4.45c-3.56-2.67-10.88-3.15-16.5-4.86-5.61-1.71-5.67-5.62-5.67-5.62l.4-.15Z"/>
  </g>
  <path class="cls-1" d="M499.37,179.07s-.07,0-.11,0l-37.52-6.45c-.34-.06-.57-.38-.51-.73,.06-.34,.37-.58,.73-.51l36.28,6.24-29.77-57.7c-.16-.31-.04-.69,.27-.85,.31-.16,.69-.04,.85,.27l30.35,58.83c.11,.21,.09,.47-.05,.66-.12,.16-.31,.26-.51,.26Z"/>
</svg>